<svg xmlns="http://www.w3.org/2000/svg" width="28" height="28" viewBox="0 0 28 28">
<defs>
<linearGradient id="g" x1="0" y1="0" x2="1" y2="1">
<stop offset="0" stop-color="#24292e"/>
<stop offset="1" stop-color="#4a5568"/>
</linearGradient>
</defs>
<circle cx="14" cy="14" r="14" fill="url(#g)"/>
<path d="M9.5 22c.5.1.7-.2.7-.5v-2.2c-3 .6-3.6-1.4-3.6-1.4-.5-1.1-1.2-1.4-1.2-1.4-1-.7.1-.6.1-.6 1.1.1 1.6 1.1 1.6 1.1 1 .1.7-.7 1.8-1 .1-.7.4-1.2.7-1.5-2.4-.3-4.9-1.2-4.9-5.3 0-1.2.4-2.2 1.1-3 0 0 .9-.3 2.9 1.1.8-.2 1.7-.3 2.6-.3s1.8.1 2.6.3c2-1.4 2.9-1.1 2.9-1.1.7.8 1.1 1.8 1.1 3 0 4.1-2.5 5-4.9 5.3.4.3.8 1 .8 2.1v3.1c0 .3.2.6.7.5" fill="#fff" opacity=".9"/>
</svg>
