<svg xmlns="http://www.w3.org/2000/svg" width="28" height="28" viewBox="0 0 28 28">
<circle cx="14" cy="14" r="14" fill="#1DA1F2"/>
<path d="M21.5 10.2c-.6.3-1.2.5-1.9.6.7-.4 1.2-1.1 1.5-1.9-.6.4-1.3.7-2 .8-.6-.6-1.5-1-2.3-1-1.8 0-3.2 1.4-3.2 3.2 0 .3 0 .6.1.9-2.6-.1-4.9-1.4-6.4-3.3-.3.6-.4 1.2-.4 1.9 0 1.1.6 2.1 1.4 2.6-.5 0-1-.2-1.5-.4 0 1.6 1.2 3 2.8 3.3-.3.1-.6.1-.9.1-.2 0-.4 0-.6-.1.4 1.3 1.7 2.2 3.1 2.2-1.2 1-2.7 1.6-4.3 1.6H6c1.6 1 3.5 1.6 5.5 1.6 6.6 0 10.2-5.4 10.2-10.2v-.5c.7-.5 1.2-1.1 1.6-1.8-.6.3-1.2.5-1.8.6z" fill="#fff"/>
</svg>
